<?xml version="1.0" encoding="utf-8"?>
<!-- Generator: Adobe Illustrator 22.1.0, SVG Export Plug-In . SVG Version: 6.00 Build 0)  -->
<svg version="1.1" id="Lager_1" xmlns="http://www.w3.org/2000/svg" xmlns:xlink="http://www.w3.org/1999/xlink" x="0px" y="0px"
	 viewBox="0 0 948.9 80.1" style="enable-background:new 0 0 948.9 80.1;" xml:space="preserve">
<style type="text/css">
	.st0{fill:#AFC6A5;}
</style>
<g>
	<path class="st0" d="M262.6,71.6c-1.9,0-3.1-1.1-3.9-2.5l-10.6-18.7l-1.4-0.9h-3.3c-2.4,0-3.8-0.9-4.6-2.1
		c14.4-1.5,23.4-9.4,23.4-22.7c0-15.4-11.8-22.9-29.1-22.9h-33.6l-0.9,0.9v4.8l0.9,0.9h3.5c2.2,0,4.4,2.2,4.4,4.4v54.5
		c0,2.2-2.2,4.4-4.4,4.4h-3.5l-0.9,0.9v4.8l0.9,0.9h31.2l0.9-0.9v-4.8l-0.9-0.9h-3.5c-2.2,0-4.4-2.2-4.4-4.4V47.7h6.6l17.1,29.6
		l1.4,0.9h18.2l0.9-0.9v-4.8l-0.9-0.9H262.6z M222.7,41.1V12.8c0-2.2,2.2-4.4,4.4-4.4h5.4c10.2,0,14.2,7.1,14.2,16.4
		c0,9.3-3.4,16.4-13.6,16.4H222.7z"/>
	<path class="st0" d="M327.6,55.6l-1.2,1.1c-0.7,6.8-3.6,15-15.5,15h-11.5c-2.2,0-4.4-2.2-4.4-4.4V42.7h14.4c2.2,0,4.4,2.2,4.4,4.4
		v1.3l0.9,0.9h4.8l0.9-0.9V30.4l-0.9-0.9h-4.8l-0.9,0.9v1.3c0,2.1-2.2,4.4-4.4,4.4h-14.4v-0.5V12.8c0-2.2,2.2-4.4,4.4-4.4h13.2
		c5.9,0,9.7,4.3,10.6,10.6l0.9,1.1h3.4l4.9-13.9V2.9l-1.1-1.1h-59.6L271,2.7v4.8l0.9,0.9h3.5c2.2,0,4.4,2.2,4.4,4.4v54.5
		c0,2.2-2.2,4.4-4.4,4.4h-3.5l-0.9,0.9v4.8l0.9,0.9h58.8l0.9-0.9l1.6-20.6l-0.8-1.1H327.6z"/>
	<path class="st0" d="M57.4,55.6l-1.2,1.1c-0.7,6.8-3.6,15-15.5,15H29.3c-2.2,0-4.4-2.2-4.4-4.4V42.7h14.4c2.2,0,4.4,2.2,4.4,4.4
		v1.3l0.9,0.9h4.8l0.9-0.9V30.4l-0.9-0.9h-4.8l-0.9,0.9v1.3c0,2.1-2.2,4.4-4.4,4.4H24.9v-0.5V12.8c0-2.2,2.2-4.4,4.4-4.4h13.2
		c5.9,0,9.7,4.3,10.6,10.6l0.9,1.1h3.4l4.9-13.9V2.9l-1.1-1.1H1.6L0.7,2.7v4.8l0.9,0.9h3.5c2.2,0,4.4,2.2,4.4,4.4v54.5
		c0,2.2-2.2,4.4-4.4,4.4H1.6l-0.9,0.9v4.8l0.9,0.9h58.8l0.9-0.9l1.6-20.6l-0.8-1.1H57.4z"/>
	<path class="st0" d="M165.2,1.9h-33.6l-0.9,0.9v4.8l0.9,0.9h3.5c2.2,0,4.4,2.2,4.4,4.4v54.5c0,2.2-2.2,4.4-4.4,4.4h-3.5l-0.9,0.9
		v4.8l0.9,0.9h31.2l0.9-0.9v-4.8l-0.9-0.9h-3.5c-2.2,0-4.4-2.2-4.4-4.4V49.4h10.3c17.3,0,29.1-9.2,29.1-23.8
		C194.3,10.3,182.5,1.9,165.2,1.9z M164.6,42.8h-9.7V12.8c0-2.2,2.2-4.4,4.4-4.4h5.4c10.2,0,14.2,8,14.2,17.2
		C178.8,34.9,174.9,42.8,164.6,42.8z"/>
	<path class="st0" d="M103.8,32.9c-11.3-4.8-18-6.5-18-15.2c0-6.5,6.6-11.1,14.3-11.1c7.9,0,14.7,5.5,15.4,12.5l1.1,1.1h3.8l1.1-1.1
		L121,6.6l-0.7-1.1C116.8,2.8,108.4,0,98.8,0C84.9,0,72.1,7.8,72.1,21c0,12.9,8.1,17.7,20.2,22.9c9.3,4,18.1,5.9,18.1,16.3
		c0,6.7-5.6,13.2-15,13.2c-8.4,0-15.7-6.2-16.7-16.8l-1.1-1.1h-4.5L72,56.7l-1.2,14.8l0.8,1.4c5,3.7,15.1,7.1,25.3,7.1
		c16.3,0,28.9-8.6,28.9-23.1C125.8,42.3,115.5,37.9,103.8,32.9z"/>
	<path class="st0" d="M797.7,1.9l-0.9,0.9v4.8l0.9,0.9h3.5c2.2,0,4.4,2.2,4.4,4.4v38.4c0,13.3-6.5,19-19.7,19c-9,0-18.4-4-18.4-19
		V12.8c0-2.2,2.2-4.4,4.4-4.4h3.4l0.9-0.9V2.7l-0.9-0.9h-31.1l-0.9,0.9v4.8l0.9,0.9h3.5c2.1,0,4.1,2,4.4,4v37.5
		c0,19.5,11.2,30.1,30.6,30.1c19.4,0,30.6-10.6,30.6-30.1V12.4c0.2-2.1,2.3-4,4.4-4h3.5l0.9-0.9V2.7l-0.9-0.9H797.7z"/>
	<path class="st0" d="M374,32.9c-11.3-4.8-18-6.5-18-15.2c0-6.5,6.6-11.1,14.3-11.1c7.9,0,14.7,5.5,15.4,12.5l1.1,1.1h3.8l1.1-1.1
		l-0.6-12.3l-0.7-1.1C387,2.8,378.6,0,369,0c-13.9,0-26.7,7.9-26.7,21c0,12.9,8.1,17.7,20.2,22.9c9.3,4,18.1,5.9,18.1,16.3
		c0,6.7-5.6,13.2-15,13.2c-8.4,0-15.7-6.2-16.7-16.8l-1.1-1.1h-4.5l-1.1,1.1L341,71.5l0.8,1.4c5,3.7,15.1,7.1,25.3,7.1
		C383.4,80,396,71.5,396,57C396,42.3,385.7,37.9,374,32.9z"/>
	<path class="st0" d="M859.3,32.9c-11.3-4.8-18-6.5-18-15.2c0-6.5,6.6-11.1,14.3-11.1c7.9,0,14.7,5.5,15.4,12.5l1.1,1.1h3.8l1.1-1.1
		l-0.6-12.3l-0.7-1.1C872.3,2.8,863.9,0,854.3,0c-13.9,0-26.7,7.9-26.7,21c0,12.9,8.1,17.7,20.2,22.9c9.3,4,18.1,5.9,18.1,16.3
		c0,6.7-5.6,13.2-15,13.2c-8.4,0-15.7-6.2-16.7-16.8l-1.1-1.1h-4.5l-1.1,1.1l-1.2,14.8l0.8,1.4c5,3.7,15.1,7.1,25.3,7.1
		c16.3,0,28.9-8.6,28.9-23.1C881.3,42.3,871,37.9,859.3,32.9z"/>
	<path class="st0" d="M948.8,55.6h-4.7l-1.2,1.1c-0.7,6.8-3.6,15-15.5,15H916c-2.2,0-4.4-2.2-4.4-4.4V42.7H926
		c2.2,0,4.4,2.2,4.4,4.4v1.3l0.9,0.9h4.8l0.9-0.9V30.4l-0.9-0.9h-4.8l-0.9,0.9v1.3c0,2.1-2.2,4.4-4.4,4.4h-14.4v-0.5V12.8
		c0-2.2,2.2-4.4,4.4-4.4h13.2c5.9,0,9.7,4.3,10.6,10.6l0.9,1.1h3.4L949,6.2V2.9l-1.1-1.1h-59.6l-0.9,0.9v4.8l0.9,0.9h3.5
		c2.2,0,4.4,2.2,4.4,4.4v54.5c0,2.2-2.2,4.4-4.4,4.4h-3.5l-0.9,0.9v4.8l0.9,0.9h58.8l0.9-0.9l1.6-20.6L948.8,55.6z"/>
	<path class="st0" d="M700.1,0c-21.9,0-39.3,16.6-39.3,40c0,23.4,17.4,40,39.3,40c21.9,0,39.3-16.6,39.3-40
		C739.5,16.6,722,0,700.1,0z M700.1,72.6C682.9,72.6,677,57.5,677,40c0-17.4,5.9-33.5,23.1-33.5c17.2,0,23.1,16,23.1,33.5
		C723.2,57.5,717.3,72.6,700.1,72.6z"/>
	<path class="st0" d="M435.1,32.9c-11.3-4.8-18-6.5-18-15.2c0-6.5,6.6-11.1,14.3-11.1c7.9,0,14.7,5.5,15.4,12.5l1.1,1.1h3.8l1.1-1.1
		l-0.6-12.3l-0.7-1.1C448.2,2.8,439.8,0,430.2,0c-13.9,0-26.7,7.9-26.7,21c0,12.9,8.1,17.7,20.2,22.9c9.3,4,18.1,5.9,18.1,16.3
		c0,6.7-5.6,13.2-15,13.2c-8.4,0-15.7-6.2-16.7-16.8l-1.1-1.1h-4.5l-1.1,1.1l-1.2,14.8l0.8,1.4c5,3.7,15.1,7.1,25.3,7.1
		c16.3,0,28.9-8.6,28.9-23.1C457.2,42.3,446.8,37.9,435.1,32.9z"/>
	<path class="st0" d="M503.4,0c-21.9,0-39.3,16.6-39.3,40c0,23.4,17.4,40,39.3,40c21.9,0,39.3-16.6,39.3-40
		C542.8,16.6,525.3,0,503.4,0z M503.4,72.6c-17.2,0-23.1-15.2-23.1-32.6c0-17.4,5.9-33.5,23.1-33.5c17.2,0,23.1,16,23.1,33.5
		C526.5,57.5,520.6,72.6,503.4,72.6z"/>
	<path class="st0" d="M623.8,1.9l-0.9,0.9v4.8l0.9,0.9h3.5c2.2,0,4.4,2.2,4.4,4.4v23.4h-32V12.8c0-2.2,2.2-4.4,4.4-4.4h3.5l0.9-0.9
		V2.7l-0.9-0.9h-31.2l-0.9,0.9v4.8l0.9,0.9h3.5c2.2,0,4.4,2.2,4.4,4.4v54.5c0,2.2-2.2,4.4-4.4,4.4h-3.5l-0.9,0.9v4.8l0.9,0.9h31.2
		l0.9-0.9v-4.8l-0.9-0.9H604c-2.2,0-4.4-2.2-4.4-4.4V42.7h32v24.6c0,2.2-2.2,4.4-4.4,4.4h-3.5l-0.9,0.9v4.8l0.9,0.9H655l0.9-0.9
		v-4.8l-0.9-0.9h-3.5c-2.2,0-4.4-2.2-4.4-4.4V12.8c0-2.2,2.2-4.4,4.4-4.4h3.5l0.9-0.9V2.7L655,1.9H623.8z"/>
</g>
</svg>
