<svg xmlns="http://www.w3.org/2000/svg" fill="none" viewBox="0 0 40 32" class="shrink-0 h-[32px] w-[40px]" aria-label="Q8Truck logo"><path fill="#20419A" d="M20.597 9.77s-.037.04-.16.049a.3.3 0 0 1 .154.048 2.44 2.44 0 0 1 1.137 2.235c-.152 1.983-1.72 3.132-3.646 3.132s-3.315-1.149-3.164-3.132c.057-.742.5-1.671 1.48-2.24 0 0 .077-.044.16-.043-.12-.01-.152-.05-.152-.05-.636-.49-.809-1.228-.756-1.903.117-1.539 1.547-2.675 3.203-2.675s2.91 1.146 2.792 2.675c-.053.676-.336 1.414-1.048 1.903m-2.039-.813c.631 0 1.064-.412 1.109-.946.045-.531-.334-.946-.95-.946s-1.065.415-1.11.946c-.045.534.32.946.951.946m-.337 4.322c.7 0 1.29-.499 1.354-1.243.06-.71-.423-1.226-1.144-1.226s-1.29.516-1.35 1.226c-.064.744.441 1.243 1.14 1.243M13.537 13.235l-.23-.246a5.45 5.45 0 0 0 1.022-2.784c.206-2.769-1.797-5.014-4.472-5.014S4.845 7.436 4.64 10.205c-.206 2.768 1.796 5.013 4.472 5.013a5 5 0 0 0 2.778-.86l.113.121c.141.145.48.49.635.641.837.817 2.353-.326 2.353-.326zm-6.849-3.03c.12-1.598 1.467-2.893 3.011-2.893s2.7 1.295 2.58 2.893a3.1 3.1 0 0 1-.374 1.265l-.924-.993-1.445 1.338.94 1.009a2.8 2.8 0 0 1-1.206.273c-1.544 0-2.699-1.295-2.581-2.892"></path><path fill="#FFC61E" d="M34.417 8.177c-.4-1.758-1.44-2.827-1.485-2.872l-.098-.099-.135.036a8 8 0 0 0-1.975.843 5 5 0 0 0-.6-.78l-.098-.099-.135.036c-1.094.293-2.182.87-3.233 1.713-.834.67-1.647 1.509-2.418 2.494-1.31 1.673-2.03 3.169-2.061 3.232l-.067.139.099.118c1.713 2.059 3.757 2.49 5.169 2.49.631 0 1.127-.086 1.4-.147a6.8 6.8 0 0 0 1.409.148c.958 0 1.604-.2 1.631-.208l.058-.019.043-.044c1.2-1.245 2.002-2.537 2.385-3.837a6.17 6.17 0 0 0 .11-3.143"></path><path fill="#fff" d="M28.653 8.004h-2.81a15 15 0 0 0-.841.897h2.809c.263-.303.544-.605.841-.897M27.083 9.798h-2.81q-.353.466-.644.897h2.81q.29-.43.643-.897M25.864 11.593h-2.809a19 19 0 0 0-.51.897h2.81c.11-.21.281-.52.51-.897M25.763 13.388h-2.808c.379.365.768.66 1.157.897h2.809a6.6 6.6 0 0 1-1.158-.897"></path><path fill="#FFC61E" d="M28.878 15.056a25 25 0 0 0 .694-.771h-5.46a6.25 6.25 0 0 0 3.26.904c.656 0 1.262-.075 1.506-.133"></path><path fill="#fff" d="M30.653 6.407h-2.81q-.515.322-.988.699h2.81c.311-.248.648-.488.988-.699"></path><path fill="#FFC61E" d="M29.952 5.474a7.9 7.9 0 0 0-2.108.933h2.795a5.3 5.3 0 0 0-.687-.933"></path><path fill="#20419A" d="M33.808 7.106h-2.81c.12.27.23.57.318.897h2.81a6 6 0 0 0-.318-.897M31.513 9.798h2.809a6 6 0 0 0-.028-.897h-2.809c.03.285.042.585.028.897M31.156 11.593h2.808q.162-.462.248-.898h-2.809q-.087.436-.247.898M30.243 13.388h2.81q.303-.458.526-.897H30.77a9 9 0 0 1-.526.897M29.572 14.285q-.29.35-.633.707l-.062.064c1.656.37 2.87-.064 2.87-.064q.344-.357.633-.707zM32.76 5.474a7.9 7.9 0 0 0-2.107.933h2.794a5.3 5.3 0 0 0-.686-.933"></path><path fill="#FFC61E" d="M31.317 8.004a6 6 0 0 0-.318-.898h-4.144c-.357.283-.694.585-1.012.897z"></path><path fill="#CC0C00" d="M34.294 8.9a6 6 0 0 0-.169-.897h-5.472c-.298.293-.58.595-.842.898z"></path><path fill="#FFC61E" d="M31.486 8.901h-6.484q-.391.452-.728.898h7.24a6 6 0 0 0-.029-.898"></path><path fill="#CC0C00" d="M34.322 9.798h-7.24c-.235.31-.45.612-.643.897h7.773q.092-.465.11-.897"></path><path fill="#FFC61E" d="M23.63 10.695c-.22.325-.411.628-.574.897h8.1a6.5 6.5 0 0 0 .248-.897z"></path><path fill="#CC0C00" d="M33.964 11.593h-8.1c-.228.377-.399.688-.51.897h8.224q.233-.459.386-.897"></path><path fill="#FFC61E" d="M22.545 12.49c-.098.187-.15.295-.15.295q.275.33.56.603h7.288q.304-.458.526-.897z"></path><path fill="#CC0C00" d="M33.052 13.388h-7.29c.37.358.801.671 1.159.898h5.46q.378-.457.671-.898M33.808 7.106a7 7 0 0 0-.361-.699h-2.795l-.01.007q-.51.318-.979.692z"></path><path fill="#FFC61E" d="M34.417 8.177c-.4-1.758-1.44-2.827-1.485-2.872l-.097-.1-.136.037a8 8 0 0 0-1.976.843 5 5 0 0 0-.6-.78l-.098-.1-.134.037c-1.095.293-2.182.87-3.232 1.713-.835.67-1.648 1.509-2.419 2.494-1.309 1.673-2.03 3.169-2.06 3.232l-.067.139.098.118c1.714 2.06 3.757 2.492 5.169 2.492.631 0 1.127-.087 1.4-.149.508.11.987.149 1.409.149.959 0 1.604-.2 1.631-.209l.058-.018.043-.044c1.2-1.247 2.002-2.537 2.385-3.838a6.2 6.2 0 0 0 .11-3.143"></path><path fill="#fff" d="M28.653 8.004h-2.81c-.298.292-.578.595-.84.897h2.809c.263-.303.543-.605.841-.897M27.083 9.799h-2.81q-.353.466-.643.897h2.809c.193-.286.408-.588.644-.897M25.865 11.593h-2.81c-.228.377-.398.688-.51.897h2.81c.11-.209.282-.52.51-.897M25.764 13.388h-2.809c.379.365.768.66 1.157.897h2.81a6.6 6.6 0 0 1-1.158-.897"></path><path fill="#FFC61E" d="M28.878 15.056c.08-.084.285-.302.694-.77h-5.46a6.25 6.25 0 0 0 3.26.904c.656 0 1.261-.075 1.506-.133"></path><path fill="#fff" d="M30.653 6.407h-2.81q-.515.322-.989.699h2.81c.312-.248.649-.487.989-.699"></path><path fill="#FFC61E" d="M29.952 5.475c-.75.2-1.454.527-2.108.933h2.794c-.357-.6-.686-.933-.686-.933"></path><path fill="#20419A" d="M33.808 7.106h-2.81c.12.27.23.57.318.898h2.81a6 6 0 0 0-.318-.898M31.513 9.798h2.809a6 6 0 0 0-.027-.897h-2.809c.03.285.042.585.027.897M31.156 11.593h2.809q.162-.46.247-.897h-2.809q-.085.436-.247.897M30.243 13.388h2.809a9 9 0 0 0 .527-.898h-2.81q-.222.44-.526.898M29.573 14.285q-.29.35-.633.707l-.062.064c1.657.37 2.87-.064 2.87-.064q.344-.357.633-.707zM32.76 5.475c-.75.2-1.453.527-2.107.933h2.794a5.3 5.3 0 0 0-.686-.933"></path><path fill="#FFC61E" d="M31.317 8.004a6 6 0 0 0-.318-.898h-4.144q-.535.426-1.012.898z"></path><path fill="#CC0C00" d="M34.294 8.901a6 6 0 0 0-.168-.897h-5.473c-.298.293-.58.595-.842.897z"></path><path fill="#FFC61E" d="M31.486 8.901h-6.483q-.392.452-.729.898h7.24a6 6 0 0 0-.028-.898"></path><path fill="#CC0C00" d="M34.322 9.799h-7.24q-.353.466-.643.898h7.773q.091-.465.11-.898"></path><path fill="#FFC61E" d="M23.63 10.696c-.22.324-.411.628-.574.897h8.1q.162-.46.247-.897z"></path><path fill="#CC0C00" d="M33.965 11.593h-8.1c-.227.377-.4.688-.51.898h8.225q.23-.46.385-.898"></path><path fill="#FFC61E" d="M22.546 12.49c-.1.188-.15.295-.15.295q.274.33.559.603h7.288q.303-.457.526-.898z"></path><path fill="#CC0C00" d="M33.053 13.388h-7.29c.37.358.8.67 1.158.897h5.46q.377-.456.672-.897M33.808 7.106a7 7 0 0 0-.36-.698h-2.795l-.01.006q-.51.32-.98.693z"></path><path fill="#20419A" d="m11.848 18.832.175-.791q.033-.176-.055-.284c-.068-.082-.18-.122-.345-.122H5.107c-.352 0-.419.236-.428.372l-.074.75c-.01.094-.013.23.074.327q.096.108.304.107h2.251L6.487 26.2q-.03.239.075.357c.092.105.234.117.332.117h1.018q.406.002.451-.396l.759-7.087h2.2c.235 0 .461-.043.527-.358zM14.788 20.16a1.3 1.3 0 0 0-.383-.056c-.579 0-1.038.189-1.49.622l.005-.09q.015-.163-.074-.258-.098-.109-.326-.108h-.814q-.44.001-.475.422l-.58 5.533q-.027.211.078.333.104.116.3.116h.956c.387 0 .424-.316.436-.421l.426-4.008c.334-.333.78-.547 1.144-.547.119 0 .22.014.3.025q.086.012.136.013c.225 0 .275-.19.292-.253l.25-.984c.046-.216-.073-.303-.18-.339M20.869 20.27h-.904q-.421 0-.464.396l-.424 4.012c-.356.28-.95.555-1.437.555s-.682-.188-.712-.63c-.01-.13-.007-.29.006-.425l.38-3.488q.02-.193-.08-.303-.105-.117-.323-.117h-.89c-.36 0-.458.215-.477.396l-.4 3.755c-.026.245-.032.48-.016.695.078 1.12.733 1.71 1.895 1.71.68 0 1.37-.214 1.97-.607a1 1 0 0 0 0 .131c.014.197.166.324.386.324h.814c.303 0 .457-.146.485-.461l.594-5.522q.02-.193-.08-.304-.105-.117-.323-.117M27.36 20.472a3.9 3.9 0 0 0-1.705-.368c-1.053 0-1.967.382-2.641 1.105-.724.776-1.092 1.894-1.01 3.066.112 1.597 1.16 2.551 2.806 2.551.668 0 1.3-.132 1.933-.406.217-.106.378-.21.303-.501l-.14-.558a.32.32 0 0 0-.154-.218.36.36 0 0 0-.291-.018c-.499.189-.806.273-1.314.273-1.057 0-1.275-.857-1.31-1.369-.052-.731.177-1.445.61-1.91a1.8 1.8 0 0 1 1.344-.575c.338 0 .625.076 1.025.269q.163.08.28.031c.107-.042.159-.146.19-.224l.243-.686c.054-.141.084-.321-.17-.463M33.544 20.44c-.046-.107-.155-.17-.292-.17h-1.07c-.198 0-.306.053-.446.219L30.04 22.52l.52-4.8q.015-.206-.088-.305c-.069-.065-.166-.089-.303-.074l-1.02.14c-.308.04-.373.258-.395.445l-.882 8.315q-.018.209.086.322.1.108.292.109h.955q.39-.001.436-.422l.266-2.447.008-.006 1.28 2.544c.118.232.291.33.58.33h1.095c.065 0 .26 0 .344-.14.082-.134.01-.306-.053-.425l-1.676-3.147 2-2.217a.28.28 0 0 0 .06-.304"></path></svg>