<?xml version="1.0" encoding="utf-8"?>
<svg xmlns="http://www.w3.org/2000/svg" xmlns:xlink="http://www.w3.org/1999/xlink" version="1.1" id="Lager_1" x="0px" y="0px" viewBox="0 0 48 48" style="enable-background:new 0 0 48 48;">
<style type="text/css">
	.st0{fill:#FFAC3A;}
	.st1{fill:#006341;}
</style>
<path class="st0" d="M44.06,48H3.94C1.76,48,0,46.24,0,44.06V3.94C0,1.76,1.76,0,3.94,0h40.13C46.24,0,48,1.76,48,3.94v40.13&#xA;	C48,46.24,46.24,48,44.06,48z"/>
<g>
	<path class="st1" d="M15.82,35.16L15.82,35.16v-0.91h-1.2v5.75h1.24v-2.63c0-0.61,0.12-1.09,0.36-1.43&#xA;		c0.24-0.34,0.64-0.51,1.22-0.51c0.11,0,0.22,0.01,0.33,0.02c0.1,0.02,0.21,0.03,0.3,0.06v-1.32c-0.18-0.05-0.37-0.07-0.56-0.07&#xA;		c-0.41,0-0.75,0.09-1.02,0.28C16.22,34.58,16,34.83,15.82,35.16"/>
	<path class="st1" d="M19.51,36.57c0.08-0.41,0.25-0.74,0.51-0.98c0.26-0.24,0.62-0.36,1.08-0.36c0.45,0,0.8,0.12,1.04,0.37&#xA;		c0.24,0.25,0.38,0.57,0.42,0.97H19.51z M19.5,37.51h4.42v-0.36c0-0.44-0.06-0.85-0.18-1.23c-0.12-0.37-0.3-0.69-0.54-0.96&#xA;		c-0.24-0.27-0.53-0.48-0.88-0.63c-0.35-0.15-0.75-0.22-1.19-0.22c-0.45,0-0.85,0.08-1.2,0.24c-0.36,0.16-0.66,0.37-0.91,0.65&#xA;		c-0.25,0.28-0.44,0.6-0.58,0.97s-0.2,0.76-0.2,1.19c0,0.44,0.07,0.85,0.21,1.21c0.14,0.36,0.34,0.68,0.6,0.94&#xA;		c0.26,0.26,0.57,0.47,0.94,0.62c0.37,0.15,0.79,0.22,1.25,0.22c0.54,0,1-0.09,1.38-0.28c0.35-0.18,0.65-0.37,0.88-0.59l-0.65-0.94&#xA;		c-0.18,0.16-0.38,0.3-0.61,0.42c-0.28,0.15-0.62,0.22-1,0.22c-0.21,0-0.41-0.03-0.6-0.09c-0.2-0.06-0.37-0.15-0.53-0.27&#xA;		c-0.16-0.12-0.29-0.27-0.39-0.45c-0.1-0.18-0.17-0.4-0.2-0.64V37.51z"/>
	<path class="st1" d="M25.78,36.57c0.08-0.41,0.25-0.74,0.51-0.98c0.26-0.24,0.62-0.36,1.08-0.36c0.45,0,0.8,0.12,1.04,0.37&#xA;		c0.24,0.25,0.38,0.57,0.42,0.97H25.78z M25.77,37.51h4.42v-0.36c0-0.44-0.06-0.85-0.18-1.23c-0.12-0.37-0.3-0.69-0.54-0.96&#xA;		c-0.24-0.27-0.53-0.48-0.88-0.63c-0.35-0.15-0.75-0.22-1.19-0.22c-0.45,0-0.85,0.08-1.2,0.24c-0.36,0.16-0.66,0.37-0.91,0.65&#xA;		c-0.25,0.28-0.44,0.6-0.58,0.97s-0.2,0.76-0.2,1.19c0,0.44,0.07,0.85,0.21,1.21c0.14,0.36,0.34,0.68,0.6,0.94&#xA;		c0.26,0.26,0.57,0.47,0.94,0.62c0.37,0.15,0.79,0.22,1.25,0.22c0.54,0,1-0.09,1.38-0.28c0.35-0.18,0.65-0.37,0.88-0.59l-0.65-0.94&#xA;		c-0.18,0.16-0.38,0.3-0.61,0.42c-0.28,0.15-0.62,0.22-1,0.22c-0.21,0-0.41-0.03-0.6-0.09c-0.2-0.06-0.37-0.15-0.53-0.27&#xA;		c-0.16-0.12-0.29-0.27-0.39-0.45c-0.1-0.18-0.17-0.4-0.2-0.64V37.51z"/>
	<path class="st1" d="M35.76,35.22c-0.15-0.34-0.38-0.62-0.69-0.81s-0.69-0.29-1.15-0.29c-0.44,0-0.8,0.09-1.1,0.26&#xA;		c-0.3,0.18-0.53,0.41-0.71,0.69v-0.82H30.9v5.75h1.24v-2.71c0-0.28,0.02-0.55,0.07-0.79c0.05-0.24,0.13-0.45,0.24-0.63&#xA;		s0.27-0.32,0.45-0.43c0.19-0.1,0.42-0.16,0.71-0.16c0.4,0,0.7,0.12,0.9,0.36c0.2,0.24,0.3,0.59,0.3,1.05v3.31h1.24v-2.71&#xA;		c0-0.28,0.02-0.55,0.08-0.79c0.05-0.25,0.13-0.46,0.25-0.63c0.11-0.18,0.27-0.32,0.45-0.42c0.19-0.1,0.42-0.16,0.71-0.16&#xA;		c0.4,0,0.7,0.12,0.9,0.36c0.2,0.24,0.3,0.59,0.3,1.05v3.31H40v-3.4c0-0.76-0.18-1.36-0.55-1.81c-0.36-0.45-0.91-0.67-1.65-0.67&#xA;		c-0.51,0-0.93,0.1-1.26,0.31C36.22,34.63,35.96,34.9,35.76,35.22"/>
	<path class="st1" d="M8,42.31h1.24v-3.13c0.22,0.28,0.49,0.51,0.82,0.69c0.32,0.18,0.71,0.28,1.17,0.28c0.37,0,0.72-0.07,1.04-0.2&#xA;		c0.33-0.13,0.61-0.33,0.85-0.59c0.24-0.26,0.43-0.58,0.58-0.95c0.14-0.37,0.21-0.8,0.21-1.27c0-0.47-0.07-0.89-0.21-1.27&#xA;		c-0.14-0.38-0.33-0.69-0.58-0.95c-0.24-0.26-0.53-0.45-0.85-0.59c-0.33-0.14-0.68-0.21-1.05-0.21c-0.45,0-0.84,0.09-1.17,0.26&#xA;		c-0.33,0.17-0.6,0.4-0.81,0.7v-0.82H8V42.31z M10.91,38.96c-0.51,0-0.93-0.17-1.25-0.49c-0.32-0.33-0.48-0.77-0.48-1.33&#xA;		c0-0.56,0.16-1,0.48-1.33c0.32-0.33,0.73-0.49,1.25-0.49c0.52,0,0.94,0.17,1.25,0.51c0.31,0.34,0.47,0.78,0.47,1.32&#xA;		c0,0.55-0.16,0.99-0.47,1.32C11.85,38.79,11.43,38.96,10.91,38.96"/>
</g>
<g>
	<g>
		<path class="st1" d="M42.99,30.21c-0.04-0.84-3.25-9.36-3.86-10.89c-0.58-1.44-1.9-4.52-2.08-5c-0.24-0.65-0.74-1.17-0.07-1.51&#xA;			c0.49-0.25,1.16-1.09,1.24-2.42c0.08-1.33-0.75-2.9-2.32-3.42c-1.57-0.53-2.88-0.29-3.5,0.29c-0.38,0.36-0.63,0.58-1.37,0.34&#xA;			c-0.74-0.24-1.4-0.5-3.25-0.82c-1.86-0.32-4.26-0.51-6.63-0.32c-2.37,0.19-4.32,0.98-5.32,1.47c-0.47,0.23-0.7,0.41-0.89,0.15&#xA;			c-0.23-0.32-0.62-0.72-2.26-0.61c-1.64,0.11-2.9,1.38-3.83,2.95C7.93,12,8.69,13.74,9.4,14.36c0.52,0.45,0.89,0.41,0.68,0.97&#xA;			c-0.26,0.69-3.25,10.39-4.02,13.45c-0.46,1.83,1.75,1.38,2.35,0.05c0.64-1.44,2.92-10.12,3.16-11.27&#xA;			c0.24-1.15,0.99-2.95,1.12-3.38c0.13-0.43-0.25-0.86-0.96-0.77c-0.7,0.09-0.96-0.72-0.75-2c0.21-1.28,1.07-1.76,1.47-1.92&#xA;			c0.4-0.16,1.07-0.01,1.25,0.63c0.18,0.66,1.03,0.7,1.49,0.36c0.47-0.35,2.1-1.46,4.63-2.05c2.53-0.59,5.32-0.16,7,0&#xA;			c1.68,0.16,4.05,0.84,4.72,1.23c0.34,0.19,0.6,0.19,0.82,0.11c0.19-0.07,0.35-0.21,0.43-0.41c0.13-0.35,0.43-0.63,0.93-0.74&#xA;			c0.51-0.11,1.38-0.05,1.81,0.43c0.43,0.48,0.47,1.04,0.43,1.32c-0.04,0.28-0.42,1-0.93,0.99c-0.93-0.02-1.14,0.69-0.9,1.49&#xA;			c0.24,0.8,2.61,6.68,2.95,7.72c0.35,1.04,2.45,6.84,3.46,8.95C41.42,31.35,43.04,31.13,42.99,30.21z"/>
		<path class="st1" d="M22.1,13.31c0.21-1.2-1.13-2.29-1.13-2.29c-0.71-0.6-1.69-0.04-1.91,0.53c-0.21,0.57,0.25,1.53,0.88,2.2&#xA;			C20.58,14.43,21.89,14.53,22.1,13.31"/>
		<path class="st1" d="M27.78,13.09c0.48-0.48,0.31-1.6,0.01-2.33c-0.16-0.41-0.67-0.52-1.16-0.53c-0.74-0.01-1.06,0.51-1.04,1.5&#xA;			c0.01,0.63,0.05,1.24,0.58,1.54C26.69,13.57,27.41,13.47,27.78,13.09"/>
		<path class="st1" d="M25.18,17.98c0.14-0.37,0.58-0.48,0.81-0.46c0.29,0.02,0.56,0.13,0.79,0.29c0.51,0.3,0.49,0.77,0.39,0.94&#xA;			c-0.17,0.28-0.66,0.33-1.23,0.33C25.36,19.08,25.04,18.35,25.18,17.98 M31.8,24.12c-0.92,0-1.24,0.51-2.53,1.01&#xA;			c-0.85,0.33-2.3,0.57-3.75,0.59c-0.02,0-0.04-0.02-0.04-0.05c0.13-0.6,0.41-1.79,0.61-2.61c0-0.01,0.01-0.02,0.03-0.03&#xA;			c0.72-0.15,1.48-0.37,2.31-0.65c2.16-0.73,2.42-3.18,2.29-4.55c-0.13-1.38-1.44-2.91-3.54-3.35c-2.1-0.44-5.24,0.9-6.5,1.78&#xA;			c-1.26,0.88-2.17,3.47-1.58,4.72c0.59,1.25,2.35,1.79,3.86,2.12c0.26,0.06,0.52,0.09,0.79,0.11c0.03,0,0.04,0.03,0.03,0.05&#xA;			c-0.46,1.13-0.81,2.22-0.88,2.41c-0.01,0.02-0.02,0.03-0.04,0.03c-1.53-0.26-4.27-1.32-5.22-2.73c-0.96-1.42-1.4,0.39-1.31,1.31&#xA;			c0.08,0.92,1.32,2,3.6,2.79c2.15,0.75,4.64,1.07,6.91,0.78c2.36-0.3,5.2-1.52,6.14-2.33C33.93,24.73,32.72,24.12,31.8,24.12"/>
	</g>
</g>
</svg>